<?xml version="1.0" standalone="no"?>
<!DOCTYPE svg PUBLIC "-//W3C//DTD SVG 20010904//EN"
 "http://www.w3.org/TR/2001/REC-SVG-20010904/DTD/svg10.dtd">
<svg version="1.0" xmlns="http://www.w3.org/2000/svg"
 width="512.000000pt" height="512.000000pt" viewBox="0 0 512.000000 512.000000"
 preserveAspectRatio="xMidYMid meet">

<g transform="translate(0.000000,512.000000) scale(0.100000,-0.100000)"
fill="#000000" stroke="none">
<path d="M2375 5064 c-16 -2 -73 -9 -125 -15 -443 -50 -908 -248 -1265 -536
-506 -410 -823 -980 -917 -1648 -16 -116 -16 -483 0 -605 52 -393 182 -749
389 -1065 190 -290 448 -548 738 -737 l89 -58 1276 0 1276 0 89 58 c214 139
461 365 607 552 286 370 458 782 520 1250 16 122 16 489 0 605 -67 477 -249
908 -530 1260 -401 500 -971 825 -1617 921 -95 14 -467 27 -530 18z m153
-1564 l-3 -261 -542 1 -543 0 0 -205 0 -205 463 -2 462 -3 3 -247 2 -248 -465
0 -465 0 0 -490 0 -490 -375 0 -375 0 0 1205 0 1205 920 0 920 0 -2 -260z
m1860 -599 l2 -193 -327 -334 c-181 -184 -376 -385 -434 -447 l-107 -112 459
3 459 2 0 -235 0 -235 -870 0 -870 0 0 218 0 218 409 419 409 420 -374 3 -374
2 0 235 0 235 808 -2 807 -3 3 -194z"/>
</g>
</svg>
